# xmcd
#
# Track frame offsets:
#	150
#	13603
#	28225
#	47239
#	67285
#	84271
#	99716
#	115384
#	132921
#	152923
#	162407
#	175356
#	189183
#	202808
#	218578
#	236815
#	251923
#	267083
#
# Disc length: 3777 seconds
#
# Revision: 0
# Processed by: cddbd v1.5.2PL0 Copyright (c) Steve Scherf et al.
# Submitted via: EasyCDDAExtractor 12.0.7.1
#
DISCID=030ebf12
DTITLE=Сергей Трофимов - Аллея шансона
DYEAR=2011
DGENRE=Chanson
TTITLE0=Снегири
TTITLE1=Дальнобойная
TTITLE2=Ветер в голове
TTITLE3=Я скучаю по тебе
TTITLE4=Эх, дал бы кто взаймы
TTITLE5=Непогода
TTITLE6=Судьба
TTITLE7=Там, там, там
TTITLE8=Горько
TTITLE9=Аты-баты
TTITLE10=Налоговый инспектор
TTITLE11=Рыбалка
TTITLE12=Баллада о бабе
TTITLE13=Ой, мамочки
TTITLE14=Ода вольности
TTITLE15=Алешка
TTITLE16=Сантехник
TTITLE17=Босота, или один день Мишаниной бригады
EXTD=
EXTT0=
EXTT1=
EXTT2=
EXTT3=
EXTT4=
EXTT5=
EXTT6=
EXTT7=
EXTT8=
EXTT9=
EXTT10=
EXTT11=
EXTT12=
EXTT13=
EXTT14=
EXTT15=
EXTT16=
EXTT17=
PLAYORDER=
